<svg xmlns="http://www.w3.org/2000/svg" viewBox="0 0 265.06 89.85"><defs><style>.cls-1{fill:#003863;}.cls-2{fill:#20c4f4;fill-rule:evenodd;}.cls-3{fill:#fff;}</style></defs><g id="Layer_2" data-name="Layer 2"><g id="Layer_1-2" data-name="Layer 1"><path class="cls-1" d="M193.81,59.71a3.5,3.5,0,0,1-1.29-3.14V35.86h-2.86V56.54a7.71,7.71,0,0,0,.88,4,5.92,5.92,0,0,0,3.31,2.42,13.33,13.33,0,0,0,3.8.37h8.4V60.46h-8.44A7.26,7.26,0,0,1,193.81,59.71Zm24.91-17.37H208.9V45.1h10.41c2.14,0,3.17.84,3.32,2.74,0,.15,0,1.36,0,1.64v.45h-8.92a5.71,5.71,0,0,0-4.25,1.61,5.82,5.82,0,0,0-1.58,4.26v1.76a5.42,5.42,0,0,0,1.31,3.72,5.7,5.7,0,0,0,4.63,2h5.8a5.45,5.45,0,0,0,4.26-1.65,6.29,6.29,0,0,0,1.47-4.37V48.55C225.37,44.49,223.07,42.34,218.72,42.34Zm3.93,15.22c0,2.08-.91,3-2.94,3h-5.93a3.26,3.26,0,0,1-.49-.06c-1.85-.33-2.68-1.26-2.68-3V55.77a2.7,2.7,0,0,1,2.55-3.06l.51-.06h9ZM240,45.6h-8.38V35.9H228.9V57.09a5.81,5.81,0,0,0,1.66,4.35,7,7,0,0,0,4.35,1.8c.33,0,.58,0,.77,0H240a11.58,11.58,0,0,0,2.69-.24,5.1,5.1,0,0,0,2.46-1.56,6.68,6.68,0,0,0,1.41-4.55V52C246.55,47.79,244.28,45.6,240,45.6Zm3.84,11.16a4.26,4.26,0,0,1-.81,3,4.28,4.28,0,0,1-3,.81H236c-3,0-4.36-1.1-4.36-3.56V48.42h8.45a4.17,4.17,0,0,1,2.27.5,3.41,3.41,0,0,1,1.5,3.13Zm16.09-5.51h-4.6a5,5,0,0,1-2.67-.53,2.32,2.32,0,0,1-.88-2.12V47.39a2.17,2.17,0,0,1,1-1.83,4.15,4.15,0,0,1,2.37-.46h9.29V42.34h-9.32A6.92,6.92,0,0,0,251,43.52a4.55,4.55,0,0,0-1.9,3.9v1.21c0,2.49,1.08,5.45,6.24,5.45h4.53a2.28,2.28,0,0,1,1.84.6,3.73,3.73,0,0,1,.58,2.06l.07.89c0,.06,0,.24,0,.53v.15c-.12,1.56-.95,2.26-2.7,2.26h-9.53v2.71h9.48c2.34,0,4-.86,4.92-2.57a6.45,6.45,0,0,0,.61-3.08v-1C265.06,53.13,263.28,51.25,259.92,51.25Z"/><path class="cls-1" d="M131.32,59.89l-1.6-2.55a.61.61,0,0,0-.4-.36.57.57,0,0,0-.5.16,8.4,8.4,0,0,1-5.34,1.79c-3.24,0-5.1-1.92-5.1-5.27V45.21c0-3.28,1.9-5.24,5.07-5.24a8.23,8.23,0,0,1,5,1.68.71.71,0,0,0,.57.12.57.57,0,0,0,.35-.32L131,38.88a.7.7,0,0,0-.15-1,12.31,12.31,0,0,0-7.38-2.55c-4.38,0-9.6,2.48-9.6,9.72v8.59c0,7.21,5.05,9.86,9.67,9.86a11.43,11.43,0,0,0,7.71-2.66A.75.75,0,0,0,131.32,59.89Z"/><path class="cls-1" d="M177.1,59.49a12.42,12.42,0,0,0,3.24-.41.64.64,0,0,0,.47-.62V48.4a.88.88,0,0,0-.48-.79,7.1,7.1,0,0,0-3.31-.75c-2.84,0-4.46,1.31-4.46,4.33v3.65c0,3.41,1.7,4.65,4.54,4.65m3.71-23.14c0-.33.27-.47.6-.47h3.33c.33,0,.6.08.6.54V61.68a.39.39,0,0,1-.08.22,1,1,0,0,1-.36.21A24.38,24.38,0,0,1,177,63.54c-5.21,0-8.95-2.7-8.95-8.74V51.19c0-5.16,3.54-8.42,8.52-8.42a10.77,10.77,0,0,1,4.26.88Z"/><path class="cls-1" d="M145.08,47.69a.55.55,0,0,1-.76,0,4.34,4.34,0,0,0-2.69-.85c-1.53,0-3.21,1.15-3.21,3.67V62.45a.6.6,0,0,1-.59.59h-3.37a.6.6,0,0,1-.59-.59V43.57a.59.59,0,0,1,.59-.59h3.25a.58.58,0,0,1,.59.59v1.32a6.74,6.74,0,0,1,5-2.14,5.83,5.83,0,0,1,4.1,1.49.65.65,0,0,1,.06,1Z"/><path class="cls-1" d="M165.26,51.75c0-3-.71-5.29-2.12-6.77s-3.5-2.23-6.25-2.23c-3,0-5.2.9-6.6,2.68s-2.13,4.61-2.13,8.26c0,3.48.68,6,2,7.53s3.56,2.32,6.59,2.32a32.6,32.6,0,0,0,7.52-1,.44.44,0,0,0,.33-.43l-.06-2.67a.33.33,0,0,0-.11-.25.41.41,0,0,0-.26-.09c-1,.09-2.44.21-3.25.24-.52,0-1,.06-1.53.1s-1.25.1-1.75.1a9.22,9.22,0,0,1-2.65-.31,2.44,2.44,0,0,1-1.44-1.13,4.36,4.36,0,0,1-.34-1.93c0-.63.08-.82.37-.82h10.82a.75.75,0,0,0,.74-.72Zm-5-.33a.4.4,0,0,1-.31.13h-6.32a.37.37,0,0,1-.29-.13.39.39,0,0,1-.12-.31,5.54,5.54,0,0,1,.86-3.2,3.42,3.42,0,0,1,2.82-1,3.25,3.25,0,0,1,2.72,1,5.61,5.61,0,0,1,.77,3.23A.48.48,0,0,1,160.21,51.42Z"/><path class="cls-2" d="M28.55,57.88c-.19,6.68-1.87,8.85,2.12,14,6.28,8.08,16.69,8.2,26,6.49,16.43-3,14.71-23.72,6.41-34.83-4.72,5.36-11.92,3.84-16,1.94s-4.5-6.32-11.58-4.8c-3.14,4-5.56,6.91-5.77,14.16ZM50.71,8.07h4.82v4.82H50.71V8.07ZM45.39,3.49V0h3.5V3.49Zm0,0H40.82V8.07h4.57V3.49Zm3.5,18.84v4.82H44.07V22.33Zm0,0h3.64V18.69H48.89v3.64ZM50,32.67h5v5H50v-5Z"/><path class="cls-3" d="M62,57.76a5.4,5.4,0,0,0-1.84-4.27,5.91,5.91,0,0,0-.66-.45,4.66,4.66,0,0,0-.5-.25,4.18,4.18,0,0,0-.53-.21A7.6,7.6,0,0,0,56,52.2h-13C39.73,52.2,37,53.85,37,58v2.38c0,3.7,2.58,5.44,5.69,5.44a8,8,0,0,0,2.92-.58c.08,2.65-1.07,3.65-3,3.65a5.55,5.55,0,0,1-3.42-1.09.31.31,0,0,0-.52.11l-1.05,1.61c-.13.23-.13.39.07.52a7.91,7.91,0,0,0,5.14,1.63c3.75,0,5.72-2.32,5.72-6.2V55.06h7.85A2.67,2.67,0,0,1,59,57.73V61a2.75,2.75,0,0,1-1.56,2.53,2.89,2.89,0,0,1-4-2.54s0-2.94,0-3.89c0-.16-.26-.22-.4-.15l-2.45,1.27a.23.23,0,0,0-.13.21v2.76a5.31,5.31,0,0,0,4.36,5.13,9.86,9.86,0,0,0,1.57.14A5.57,5.57,0,0,0,62,61.67a4.12,4.12,0,0,0,0-.51ZM45.51,62.47a4.66,4.66,0,0,1-2.62.63c-1.6,0-2.89-.66-2.89-2.73V57.78c0-2.26,1.24-2.89,3-2.89a9.43,9.43,0,0,1,2.46.29Z"/><path class="cls-1" d="M96,48.57c-3.85-2.23-5.08-5.15-5.08-10.69V23.59c0-4.54-1.79-12.2-13.79-12.51H65.07a5.23,5.23,0,0,0-4.47,2.76c-3.46,5.48-3.14,19.73,2.83,32.22,3.51,7.31,5.93,17.23,2.23,23.11C63,73.33,57.42,77.36,49,77.36s-14.08-4-16.7-8.19c-3.7-5.88-1.28-15.8,2.22-23.11,6-12.49,6.29-26.74,2.84-32.22a5.24,5.24,0,0,0-4.47-2.76H20.75C8.75,11.39,7,19.05,7,23.59V37.88c0,5.54-1.23,8.46-5.08,10.69-1.8,1-2.7,1.84-.9,2.92,4.59,2.75,6,5.66,6,11.58V77.46c0,4.2,1.31,7.37,3.9,9.42,2.13,1.69,5.94,2.66,9.75,2.89.43,0,1.36.29,1.5-.55.07-.44.27-2.88.29-3.5.05-1.49.17-1.45-1.31-1.55-2.4-.16-5.47-.84-6.67-1.79s-1.72-2.53-1.72-4.92V63.07c0-4.4-1.15-7.89-3.42-10.37a13,13,0,0,0-2.75-2.26c4.06-2.6,6.17-6.85,6.17-12.56V22.59c0-3.24,1-6.58,8.18-6.77H32.43c1.63,2.07,4.16,15-2,27.83-2,4.23-8.65,18.63-2.42,28.52C31.78,78.11,38.4,82.42,49,82.42S66.12,77.94,69.87,72c6.22-9.89-.07-24-2.09-28.22-6.12-12.79-3.92-25.89-2.29-28H77c7.21.19,8.18,3.53,8.18,6.77V37.88c0,5.71,2.11,10,6.17,12.56a13,13,0,0,0-2.75,2.26c-2.27,2.48-3.42,6-3.42,10.37V77.46c0,2.39-.56,4-1.72,4.92S79.2,84,76.8,84.17c-1.48.1-1.42.22-1.37,1.71,0,.62.25,2.94.32,3.38.13.84,1.1.54,1.53.51,3.81-.23,7.62-1.2,9.75-2.89,2.59-2,3.9-5.22,3.9-9.42V63.07c0-5.92,1.39-8.83,6-11.58C98.71,50.41,97.81,49.61,96,48.57Z"/></g></g></svg>